{"title":"The.Missing.Picture.PROPER.2013.1080p.BRRip.x264.HORiZON-ArtSubs","uid":10465902,"size":1996558403,"categoryP":"video","categoryS":"hd___movies","magnet":"?xt=urn:btih:04c4c108ff664d570b5fc11ad912f355b9a7a99c&amp;dn=The.Missing.Picture.PROPER.2013.1080p.BRRip.x264.HORiZON-ArtSubs&amp;tr=udp%3A%2F%2Ftracker.openbittorrent.com%3A80&amp;tr=udp%3A%2F%2Fopen.demonii.com%3A1337&amp;tr=udp%3A%2F%2Ftracker.coppersurfer.tk%3A6969&amp;tr=udp%3A%2F%2Fexodus.desync.com%3A6969","seeders":6,"leechers":1,"uploader":"lletaif","files":2,"time":1404191970,"description":"OBS: This is the only release available in BRRip with the original audio in French.\n\n\nTitle:\nL'image manquante Aka The Missing Picture\n\n\nCountry:\nCambodia, 2013\n\n\n\nLanguage:\nFrench\n\n\nSubtitle:\nEnglish and Portuguese\n\n\nIMDB: &lt;a href=&quot;\nhttp://www.imdb.com/title/tt2852470/?ref_=nv_sr_1&quot; rel=&quot;nofollow&quot; target=&quot;_NEW&quot;&gt;\nhttp://www.imdb.com/title/tt2852470/?ref_=nv_sr_1&lt;/a&gt;\n\n\nTrivia:\n\nWon Un Certain Regard Prize in Cannes Film Festival 2013\n\nAcademy Award Nominie in the best foreign language film category, in Oscar 2014.\n\nAnother 5 wins &amp; 4 nominations\n\n\nSynopsis:\nRithy Panh uses clay figures, archival footage, and his narration to recreate the atrocities Cambodia's Khmer Rouge committed between 1975 and 1979.\n \n\n\n\n\nMedia Info:\n\nGeneral\nUnique ID                                : 209864066583219435301022301161226626271 (0x9DE259589C78D6948C6B21706671E4DF)\nComplete name                            : The.Missing.Picture.PROPER.2013.1080p.BRRip.x264.HORiZON-ArtSubs.mkv\nFormat                                   : Matroska\nFormat version                           : Version 2\nFile size                                : 1.86 GiB\nDuration                                 : 1h 35mn\nOverall bit rate                         : 2 776 Kbps\nEncoded date                             : UTC 2014-06-26 03:52:53\nWriting application                      : DVDFab 9.1.4.0\nWriting library                          : libebml v0.7.8 + libmatroska v0.8.1\n\nVideo\nID                                       : 1\nFormat                                   : AVC\nFormat/Info                              : Advanced Video Codec\nFormat profile                           : &lt;a class=&quot;__cf_email__&quot; href=&quot;/cdn-cgi/l/email-protection&quot; data-cfemail=&quot;7f371618173f334b514e&quot;&gt;[email&amp;#160;protected]&lt;/a&gt;&lt;script cf-hash='f9e31' type=&quot;text/javascript&quot;&gt;\n/* &lt;![CDATA[ */!function(){try{var t=&quot;currentScript&quot;in document?document.currentScript:function(){for(var t=document.getElementsByTagName(&quot;script&quot;),e=t.length;e--;)if(t[e].getAttribute(&quot;cf-hash&quot;))return t[e]}();if(t&amp;&amp;t.previousSibling){var e,r,n,i,c=t.previousSibling,a=c.getAttribute(&quot;data-cfemail&quot;);if(a){for(e=&quot;&quot;,r=parseInt(a.substr(0,2),16),n=2;a.length-n;n+=2)i=parseInt(a.substr(n,2),16)^r,e+=String.fromCharCode(i);e=document.createTextNode(e),c.parentNode.replaceChild(e,c)}}}catch(u){}}();/* ]]&gt; */&lt;/script&gt;\nFormat settings, CABAC                   : Yes\nFormat settings, ReFrames                : 2 frames\nFormat settings, GOP                     : M=3, N=24\nCodec ID                                 : V_MPEG4/ISO/AVC\nDuration                                 : 1h 35mn\nBit rate                                 : 2 273 Kbps\nWidth                                    : 1 920 pixels\nHeight                                   : 1 080 pixels\nDisplay aspect ratio                     : 16:9\nFrame rate mode                          : Constant\nFrame rate                               : 24.000 fps\nColor space                              : YUV\nChroma subsampling                       : 4:2:0\nBit depth                                : 8 bits\nScan type                                : Progressive\nBits/(Pixel*Frame)                       : 0.046\nStream size                              : 1.52 GiB (82%)\nWriting library                          : x264 core\nDefault                                  : Yes\nForced                                   : No\nColor primaries                          : BT.709\nTransfer characteristics                 : BT.709\nMatrix coefficients                      : BT.709\n\nAudio\nID                                       : 2\nFormat                                   : AC-3\nFormat/Info                              : Audio Coding 3\nMode extension                           : CM (complete main)\nFormat settings, Endianness              : Big\nCodec ID                                 : A_AC3\nDuration                                 : 1h 35mn\nBit rate mode                            : Constant\nBit rate                                 : 448 Kbps\nChannel(s)                               : 6 channels\nChannel positions                        : Front: L C R, Side: L R, LFE\nSampling rate                            : 48.0 KHz\nBit depth                                : 16 bits\nCompression mode                         : Lossy\nStream size                              : 307 MiB (16%)\nLanguage                                 : French\nDefault                                  : Yes\nForced                                   : No\n\nText\nID                                       : 3\nFormat                                   : PGS\nCodec ID                                 : S_HDMV/PGS\nCodec ID/Info                            : The same subtitle format used on BDs/HD-DVDs\nLanguage                                 : English\nDefault                                  : Yes\nForced                                   : No\n\nMenu\n00:00:00.000                             : en:(01)00:00:00:000\n00:06:14.583                             : en:(02)00:06:14:583\n00:12:12.750                             : en:(03)00:12:12:750\n00:19:26.916                             : en:(04)00:19:26:916\n00:26:45.583                             : en:(05)00:26:45:583\n00:32:07.291                             : en:(06)00:32:07:291\n00:38:10.791                             : en:(07)00:38:10:791\n00:43:57.083                             : en:(08)00:43:57:083\n00:51:12.750                             : en:(09)00:51:12:750\n00:55:55.166                             : en:(10)00:55:55:166\n01:03:24.291                             : en:(11)01:03:24:291\n01:09:35.208                             : en:(12)01:09:35:208\n01:16:17.291                             : en:(13)01:16:17:291\n01:22:07.250                             : en:(14)01:22:07:250\n01:28:34.666                             : en:(15)01:28:34:666\n01:35:54.000                             : en:(16)01:35:54:000\n\n","torrent":{"xt":"urn:btih:04c4c108ff664d570b5fc11ad912f355b9a7a99c","amp;dn":"The.Missing.Picture.PROPER.2013.1080p.BRRip.x264.HORiZON-ArtSubs","amp;tr":["udp%3A%2F%2Ftracker.openbittorrent.com%3A80","udp%3A%2F%2Fopen.demonii.com%3A1337","udp%3A%2F%2Ftracker.coppersurfer.tk%3A6969","udp%3A%2F%2Fexodus.desync.com%3A6969"],"infoHash":"04c4c108ff664d570b5fc11ad912f355b9a7a99c","infoHashBuffer":{"type":"Buffer","data":[4,196,193,8,255,102,77,87,11,95,193,26,217,18,243,85,185,167,169,156]},"announce":[],"urlList":[]}}